<svg width="207" height="37" viewBox="0 0 207 37" fill="none" xmlns="http://www.w3.org/2000/svg">
<g clip-path="url(#clip0_28_336)">
<path d="M51.9 28V8.39995H55.5V16.5H64.3V8.39995H67.9V28H64.3V19.5H55.5V28H51.9ZM78.3 28.2999C76.9 28.2999 75.7 28 74.6 27.4C73.5 26.8 72.7 26 72.1 24.9C71.5 23.8 71.2 22.6 71.2 21.1C71.2 19.6 71.5 18.4 72.1 17.3C72.7 16.2 73.6 15.3 74.6 14.7C75.7 14.1 77 13.7 78.4 13.7C79.8 13.7 81 14 82 14.6C83 15.2 83.9 16 84.4 17.1C85 18.1 85.3 19.3 85.3 20.5C85.3 21.7 85.3 20.9 85.3 21.1C85.3 21.3 85.3 21.6 85.3 21.8H74.7C74.7 22.9 75.1 23.6999 75.8 24.2999C76.5 24.9 77.3 25.2 78.3 25.2C79.3 25.2 79.6 25 80.1 24.7C80.6 24.4 81 23.9 81.2 23.4H84.8C84.5 24.3 84.1 25.0999 83.5 25.7999C82.9 26.5 82.2 27.1 81.3 27.5C80.4 27.9 79.4 28.1 78.3 28.1V28.2999ZM78.3 16.7C77.4 16.7 76.6 17 76 17.5C75.3 18 74.9 18.7 74.7 19.7H81.6C81.6 18.8 81.2 18.1 80.6 17.5C80 16.9 79.2 16.7 78.3 16.7ZM93 28.2999C91.8 28.2999 90.8 28.1 90.1 27.7C89.3 27.3 88.8 26.8 88.4 26.2C88 25.6 87.8 24.9 87.8 24.1C87.8 22.8 88.3 21.8 89.3 21C90.3 20.2 91.8 19.8 93.8 19.8H97.3V19.5C97.3 18.5 97 17.8 96.5 17.4C96 17 95.3 16.7 94.5 16.7C93.7 16.7 93.1 16.9 92.6 17.2C92.1 17.5 91.7 18 91.6 18.7H88.1C88.1 17.7 88.5 16.8 89.1 16.1C89.7 15.4 90.5 14.8 91.4 14.4C92.3 14 93.4 13.8 94.5 13.8C96.5 13.8 98 14.3 99.2 15.3C100.3 16.3 100.9 17.7 100.9 19.5V28H97.8L97.5 25.7999C97.1 26.5 96.5 27.2 95.8 27.6C95.1 28.1 94.1 28.2999 93 28.2999ZM93.8 25.5C94.8 25.5 95.6 25.2 96.2 24.5C96.8 23.7999 97.1 23 97.3 22H94.2C93.2 22 92.6 22.2 92.2 22.5C91.8 22.8 91.6 23.2999 91.6 23.7999C91.6 24.2999 91.8 24.8 92.2 25.1C92.6 25.4 93.2 25.5 93.8 25.5ZM104.4 28V7.79995H108V28H104.4ZM117.8 28C116.3 28 115.2 27.6 114.3 26.9C113.4 26.2 113 24.9 113 23.1V17.1H110.6V14.1H113L113.4 10.4H116.6V14.1H120.4V17.1H116.6V23.2C116.6 23.9 116.7 24.3 117 24.6C117.3 24.8 117.8 25 118.5 25H120.2V28.1H117.8V28ZM123.4 28V7.79995H127V16.2C127.5 15.4 128.1 14.8 128.9 14.4C129.7 14 130.6 13.7 131.6 13.7C133.3 13.7 134.6 14.2 135.6 15.3C136.6 16.4 137 18 137 20.1V27.9H133.4V20.4C133.4 19.2 133.2 18.3 132.7 17.7C132.2 17.1 131.5 16.7 130.5 16.7C129.5 16.7 128.7 17.1 128 17.8C127.3 18.5 127 19.5 127 20.8V28H123.4ZM140.5 28V8.39995H147.8C149.4 8.39995 150.7 8.69995 151.7 9.19995C152.7 9.69995 153.5 10.4 154 11.4C154.5 12.3 154.8 13.3 154.8 14.5C154.8 15.7 154.6 16.6 154.1 17.5C153.6 18.4 152.9 19.1 151.8 19.7C150.8 20.2 149.5 20.5 147.9 20.5H144.2V28.1H140.6L140.5 28ZM144.1 17.5H147.5C148.8 17.5 149.6 17.2 150.2 16.7C150.8 16.1 151 15.4 151 14.4C151 13.4 150.7 12.7 150.2 12.1C149.7 11.5 148.8 11.3 147.5 11.3H144.1V17.5ZM163.4 28.2999C162.1 28.2999 160.8 28 159.8 27.4C158.7 26.8 157.9 25.9 157.3 24.9C156.7 23.8 156.4 22.5 156.4 21.1C156.4 19.7 156.7 18.4 157.4 17.3C158 16.2 158.9 15.3 159.9 14.7C161 14.1 162.2 13.8 163.5 13.8C164.8 13.8 166 14.1 167.1 14.7C168.2 15.3 169 16.2 169.6 17.3C170.2 18.4 170.6 19.6 170.6 21.1C170.6 22.6 170.3 23.8 169.6 24.9C169 26 168.1 26.8 167.1 27.4C166 28 164.8 28.2999 163.5 28.2999H163.4ZM163.4 25.2C164.3 25.2 165.1 24.9 165.8 24.2C166.5 23.5 166.8 22.4 166.8 21.1C166.8 19.8 166.5 18.7 165.8 18C165.1 17.3 164.3 16.9 163.4 16.9C162.5 16.9 161.6 17.3 160.9 18C160.2 18.7 159.9 19.7 159.9 21.1C159.9 22.5 160.2 23.5 160.9 24.2C161.6 24.9 162.4 25.2 163.3 25.2H163.4ZM175.6 11.9C174.9 11.9 174.4 11.7 174 11.3C173.6 10.9 173.4 10.4 173.4 9.79995C173.4 9.19995 173.6 8.69995 174 8.29995C174.4 7.89995 175 7.69995 175.6 7.69995C176.2 7.69995 176.8 7.89995 177.2 8.29995C177.6 8.69995 177.8 9.19995 177.8 9.79995C177.8 10.4 177.6 10.9 177.2 11.3C176.8 11.7 176.3 11.9 175.6 11.9ZM173.8 27.9V14H177.4V27.9H173.8ZM181.1 27.9V14H184.3L184.6 16.4C185 15.6 185.6 14.9 186.4 14.4C187.2 13.9 188.2 13.7 189.3 13.7C191 13.7 192.4 14.2 193.3 15.3C194.3 16.4 194.7 18 194.7 20.1V27.9H191.1V20.4C191.1 19.2 190.9 18.3 190.4 17.7C189.9 17.1 189.2 16.7 188.1 16.7C187 16.7 186.3 17.1 185.6 17.8C185 18.5 184.6 19.5 184.6 20.8V28H181L181.1 27.9ZM204.3 27.9C202.8 27.9 201.7 27.5 200.8 26.7999C199.9 26.0999 199.5 24.8 199.5 23V17H197.1V14H199.5L199.9 10.3H203.1V14H206.9V17H203.1V23.1C203.1 23.8 203.2 24.2 203.5 24.5C203.8 24.7 204.3 24.9 205 24.9H206.7V28H204.3V27.9Z" fill="#102D47"/>
<path fill-rule="evenodd" clip-rule="evenodd" d="M36 0.9C37.4 1.5 38.6 2.3 39.7 3.4C40.8 4.5 41.6 5.8 42.2 7.2C42.8 8.6 43.1 10.1 43.1 11.6C43.1 13.1 42.8 14.6 42.2 16C41.6 17.4 40.8 18.7 39.7 19.8L24 35.9C22.6 37.3 20.4 37.3 19 35.9L3.3 19.8C1.2 17.7 0 14.7 0 11.6C0 8.5 1.2 5.6 3.3 3.4C5.4 1.2 8.3 0 11.3 0C14.3 0 17.2 1.2 19.3 3.4L21.5 5.6L23.7 3.4C24.8 2.3 26 1.5 27.4 0.9C28.8 0.3 30.2 0 31.7 0C33.2 0 34.7 0.3 36 0.9ZM15.6 12.6C14 15.1 12.8 17.6 12.8 20.3C12.8 24.3 15 28 18.2 29.5L19.3 27.9C20.6 26.4 22.7 26.4 24 27.9L24.9 28.9C28.1 27.5 30 24.1 30 20.3C30 16.5 26.3 12.6 26.3 12.6C25.9 12.2 25.6 12.4 25.6 12.9C25.6 12.9 25.8 17.4 23.5 17.4C21.2 17.4 22.3 16.2 22.3 14.6C22.3 12.5 22.3 9.5 19.7 6.9C18.7 6 18.3 5.7 18.2 5.8C17.8 6 18.5 8.6 15.6 12.6ZM25.9 8.8C25.1 7.5 23.4 6.7 22.7 6.8C22.4 6.8 22.5 7 22.7 7.2C23 7.6 23.6 8.2 23.8 9.4C24.2 11.5 27 10.7 25.8 8.7L25.9 8.8Z" fill="#2F73F2"/>
</g>
<defs>
<clipPath id="clip0_28_336">
<rect width="207" height="37" fill="white"/>
</clipPath>
</defs>
</svg>
