<svg width="64" height="76" viewBox="0 0 64 76" fill="none" xmlns="http://www.w3.org/2000/svg">
<path d="M60.4704 29.5468H45.2415C41.0153 25.369 35.6147 22.3777 29.5848 21.1194C29.7063 16.1801 33.7593 12.1986 38.7275 12.1986H43.4071C44.0221 12.1986 44.5204 11.7001 44.5204 11.0853C44.5204 10.4705 44.0221 9.97203 43.4071 9.97203H38.7275C32.6588 9.97203 27.6852 14.7492 27.3689 20.7406C25.9901 20.555 24.5839 20.4574 23.1551 20.4574H22.6091C23.0725 11.9684 30.1246 5.20407 38.7273 5.20407H51.5482C52.2198 5.20407 52.7664 5.75062 52.7664 6.4223V8.75395C52.7664 9.42563 52.2198 9.97218 51.5482 9.97218H48.2589C47.644 9.97218 47.1457 10.4706 47.1457 11.0855C47.1457 11.7003 47.644 12.1987 48.2589 12.1987H51.5482C53.4477 12.1987 54.993 10.6534 54.993 8.75395V6.42215C54.993 4.52259 53.4477 2.97736 51.5482 2.97736H38.7273C28.8965 2.97736 20.8452 10.7399 20.3796 20.4572H15.1267C12.3841 20.4572 10.153 18.226 10.153 15.4837V3.44494C10.1531 1.54538 8.60788 0 6.70833 0H4.37682C2.47727 0 0.931885 1.54538 0.931885 3.44494V31.3838C0.931885 31.9987 1.43019 32.4971 2.04517 32.4971C2.66014 32.4971 3.15845 31.9987 3.15845 31.3838V3.44494C3.15845 2.77326 3.70499 2.22656 4.37682 2.22656H6.70833C7.38001 2.22656 7.92655 2.77311 7.92655 3.44494V15.4837C7.92655 18.1224 9.35437 20.4329 11.477 21.6866L14.9617 27.0385L13.9651 37.35C13.7193 39.8935 12.5715 42.2716 10.7332 44.0465L8.20725 46.4853C7.76505 46.9123 7.75259 47.6171 8.17964 48.0595C8.39814 48.2857 8.68923 48.3995 8.98061 48.3995C9.25893 48.3995 9.53769 48.2958 9.75382 48.0871L12.2796 45.6482C12.3105 45.6184 12.3395 45.5871 12.37 45.5571L13.2528 51.9568C13.3298 52.5142 13.8069 52.9181 14.3542 52.9181C14.405 52.9181 14.4562 52.9147 14.5077 52.9076C15.1169 52.8236 15.5426 52.2617 15.4584 51.6525L14.2867 43.1573C15.3315 41.474 15.9882 39.5622 16.1812 37.5642L16.9094 30.0298L22.653 38.8508C24.3317 41.4289 26.6122 43.4865 29.2796 44.8764L32.5526 54.1933C32.7135 54.6514 33.1436 54.9379 33.603 54.9379C33.7253 54.9379 33.85 54.9176 33.972 54.8747C34.5519 54.6709 34.8571 54.0354 34.6533 53.4553L32.0448 46.0302C32.5069 46.1785 32.9766 46.3097 33.4539 46.421L37.8529 47.4463C37.9378 47.466 38.0228 47.4755 38.1066 47.4755C38.6123 47.4755 39.0699 47.1285 39.1899 46.6147C39.3292 46.0159 38.9571 45.4174 38.3582 45.2777L33.9592 44.2525C30.0575 43.3432 26.7049 40.9932 24.5187 37.6359L24.2069 37.1567L34.3765 37.7753C34.3995 37.7766 34.4223 37.7773 34.4451 37.7773C35.029 37.7773 35.5193 37.3224 35.5552 36.7316C35.5925 36.118 35.1253 35.5901 34.5116 35.5529L30.4634 35.3066L33.633 32.8997C34.1227 32.5279 34.2181 31.8295 33.8463 31.3398C33.4744 30.8501 32.7765 30.7545 32.2863 31.1263L27.0547 35.0992L22.6946 34.8341L14.7774 22.6749C14.8932 22.6804 15.0095 22.6838 15.1267 22.6838H23.1551C39.2605 22.6838 52.3632 35.7864 52.3632 51.8918V53.2787C52.3632 53.8935 52.8615 54.392 53.4765 54.392C54.0913 54.392 54.5898 53.8935 54.5898 53.2787V51.8918C54.5898 49.8888 54.3992 47.9297 54.0394 46.0299H58.2417C59.6739 46.0299 60.8393 44.8645 60.8393 43.4322V41.1497C60.8393 39.7174 59.6739 38.552 58.2417 38.552H51.6145C51.3714 38.0353 51.1153 37.5257 50.8453 37.0248H60.4704C61.9027 37.0248 63.0681 35.8594 63.0681 34.4271V32.1446C63.0681 30.712 61.9027 29.5468 60.4704 29.5468ZM58.2417 40.7785C58.4464 40.7785 58.6128 40.945 58.6128 41.1495V43.4321C58.6128 43.6366 58.4464 43.8032 58.2417 43.8032H53.5329C53.2585 42.7732 52.9328 41.7642 52.5589 40.7785H58.2417ZM60.8415 34.427C60.8415 34.6315 60.6751 34.7981 60.4704 34.7981H49.5233C48.8381 33.7446 48.0917 32.7348 47.2889 31.7733H60.4704C60.6751 31.7733 60.8415 31.9399 60.8415 32.1444V34.427Z" fill="#2F73F2"/>
<path d="M0.931885 72.6602C0.931885 74.5018 2.43021 76 4.27173 76H6.80407C8.64559 76 10.1439 74.5018 10.1439 72.6602V64.8923C15.8363 70.5876 23.6971 74.1152 32.3665 74.1152H45.8369C50.6633 74.1152 54.59 70.1886 54.59 65.3621V58.1307C54.59 57.5159 54.0915 57.0174 53.4767 57.0174C52.8617 57.0174 52.3634 57.5159 52.3634 58.1307V65.3621C52.3634 68.9608 49.4356 71.8886 45.8369 71.8886H32.3665C16.2612 71.8886 3.15845 58.7859 3.15845 42.6806V36.2357C3.15845 35.6209 2.66014 35.1224 2.04517 35.1224C1.43019 35.1224 0.931885 35.6209 0.931885 36.2357V72.6602ZM7.91735 72.6602C7.91735 73.2741 7.41801 73.7735 6.80407 73.7735H4.27173C3.65779 73.7735 3.15845 73.2741 3.15845 72.6602V54.2997C4.3363 57.2502 5.94952 59.981 7.91735 62.4141V72.6602Z" fill="#2F73F2"/>
</svg>
