<svg width="88" height="66" viewBox="0 0 88 66" fill="none" xmlns="http://www.w3.org/2000/svg">
<path d="M44.1189 16.0646C44.1268 16.0648 44.1347 16.0648 44.1426 16.0648C44.8437 16.0648 45.4185 15.5027 45.431 14.7989L45.6648 1.74757C45.6775 1.03566 45.1106 0.448193 44.3991 0.435475C44.391 0.435303 44.3833 0.435303 44.3754 0.435303C43.6743 0.435303 43.0995 0.997507 43.087 1.70116L42.8532 14.7525C42.8405 15.4642 43.4074 16.0517 44.1189 16.0646Z" fill="#2F73F2"/>
<path d="M30.5051 16.9699C30.6842 17.5117 31.1879 17.8549 31.729 17.8549C31.8629 17.8549 31.9992 17.8339 32.1336 17.7896C32.8096 17.5661 33.1765 16.8372 32.9534 16.1611L29.3463 5.23961C29.1227 4.56345 28.3945 4.19615 27.7178 4.41976C27.0418 4.6432 26.6749 5.37212 26.8979 6.04828L30.5051 16.9699Z" fill="#2F73F2"/>
<path d="M19.1028 22.6031C19.3476 22.9934 19.767 23.2072 20.1958 23.2072C20.4299 23.2072 20.6669 23.1435 20.8797 23.0099C21.4828 22.6315 21.6648 21.8358 21.2863 21.2329L14.8297 10.9446C14.4512 10.3412 13.6553 10.1597 13.0527 10.538C12.4496 10.9165 12.2675 11.7121 12.646 12.315L19.1028 22.6031Z" fill="#2F73F2"/>
<path d="M9.37956 33.2845C9.68584 33.2845 9.9935 33.1757 10.2398 32.955C10.7697 32.4796 10.814 31.6648 10.3386 31.1347L2.24864 22.1144C1.77323 21.5845 0.958717 21.5398 0.42831 22.0155C-0.10158 22.4909 -0.145924 23.3058 0.329482 23.8359L8.41947 32.8562C8.67401 33.14 9.02584 33.2845 9.37956 33.2845Z" fill="#2F73F2"/>
<path d="M55.8479 17.698C55.9991 17.7557 56.1545 17.783 56.3074 17.783C56.8265 17.783 57.3157 17.4673 57.5119 16.9534L61.6275 6.17409C61.8815 5.50911 61.5481 4.76403 60.8829 4.51C60.2183 4.25597 59.4729 4.58923 59.2188 5.25456L55.1033 16.0339C54.8494 16.6989 55.1827 17.4439 55.8479 17.698Z" fill="#2F73F2"/>
<path d="M66.8893 22.6767C67.1131 22.831 67.3684 22.9053 67.621 22.9053C68.0302 22.9053 68.4326 22.7109 68.6829 22.3489L75.5896 12.3526C75.9944 11.7669 75.8474 10.9641 75.2619 10.5591C74.6756 10.1545 73.8731 10.3013 73.4684 10.8869L66.5616 20.8831C66.1568 21.4691 66.3036 22.2719 66.8893 22.6767Z" fill="#2F73F2"/>
<path d="M86.7109 21.3793C86.3385 21.3793 86.003 21.5376 85.7677 21.7904L77.4115 30.3656C76.9144 30.8755 76.9251 31.6916 77.435 32.1883C77.6856 32.4326 78.0103 32.5542 78.3345 32.5542C78.67 32.5542 79.0051 32.424 79.2578 32.1648L87.6341 23.569C87.8687 23.3283 88 23.0033 88 22.6673C88 21.9552 87.4229 21.3793 86.7109 21.3793Z" fill="#2F73F2"/>
<path d="M72.6812 32.7688C72.1314 32.3171 71.319 32.3962 70.8669 32.9465C70.4149 33.4965 70.4945 34.3088 71.0446 34.7608C74.2627 37.4049 77.0695 40.4973 79.3868 43.9523C79.4309 44.018 79.4309 44.1063 79.3869 44.1717C74.5734 51.3478 67.8034 56.7624 60.0445 59.8989C64.0696 55.795 66.4492 50.2065 66.4492 44.2636C66.4492 37.9431 63.7888 32.0876 59.3702 27.9568C61.788 28.8863 64.1239 30.0382 66.3463 31.4068C66.9521 31.7807 67.7464 31.5916 68.1197 30.9852C68.4932 30.3792 68.3043 29.5851 67.6981 29.2118C60.6299 24.8588 52.4842 22.5579 44.1419 22.5579C29.1144 22.5579 15.1385 30.019 6.75601 42.5162C6.12609 43.4553 6.12609 44.6687 6.75601 45.6077C8.41598 48.0827 10.3322 50.4042 12.4514 52.5078C12.7029 52.7572 13.0312 52.8819 13.3594 52.8819C13.691 52.8819 14.0222 52.7549 14.2743 52.5009C14.7759 51.9956 14.7728 51.1793 14.2675 50.6778C12.2692 48.6944 10.4623 46.5054 8.89706 44.1715C8.85306 44.106 8.85306 44.0182 8.89706 43.9525C13.8508 36.5669 20.8766 31.0475 28.9193 27.9563C24.4988 32.0885 21.8346 37.9455 21.8346 44.2638C21.8346 50.215 24.2249 55.8174 28.266 59.9259C24.8441 58.5423 21.5945 56.7005 18.5817 54.4214C18.0142 53.9921 17.2055 54.104 16.776 54.6718C16.3465 55.2396 16.4585 56.048 17.0264 56.4776C24.8854 62.4226 34.2615 65.5648 44.1417 65.5648C59.1698 65.5648 73.1458 58.1044 81.528 45.6078C82.1576 44.6689 82.1576 43.4558 81.5278 42.5167C79.0703 38.8521 76.0938 35.5728 72.6812 32.7688ZM35.8911 62.189C28.9158 58.9715 24.4131 51.9457 24.4131 44.2636C24.4131 35.8744 29.7199 28.4021 37.6268 25.637C39.7639 25.306 41.9411 25.136 44.1421 25.136C46.3331 25.136 48.5096 25.3048 50.6537 25.6363C58.565 28.4021 63.8713 35.8684 63.8713 44.2636C63.8713 51.9406 59.3829 58.9496 52.4239 62.1726C49.7244 62.7085 46.9529 62.9865 44.1421 62.9865C41.3398 62.9865 38.5812 62.7163 35.8911 62.189Z" fill="#2F73F2"/>
<path d="M53.1265 49.7083C54.1903 48.0191 54.7525 46.0665 54.7525 44.0615C54.7525 38.2109 49.9927 33.4512 44.1421 33.4512C38.2915 33.4512 33.5317 38.2109 33.5317 44.0615C33.5317 49.9122 38.2915 54.6719 44.1421 54.6719C45.4013 54.6719 46.6341 54.4533 47.8063 54.022C48.4744 53.7761 48.8168 53.0353 48.571 52.3671C48.3252 51.6991 47.5851 51.3571 46.916 51.6024C46.0298 51.9286 45.0963 52.0938 44.1419 52.0938C39.7129 52.0938 36.1097 48.4904 36.1097 44.0615C36.1097 39.6327 39.713 36.0293 44.1419 36.0293C48.571 36.0293 52.1742 39.6327 52.1742 44.0615C52.1742 45.5797 51.7489 47.0575 50.9447 48.3347C50.5654 48.9371 50.7462 49.7331 51.3488 50.1124C51.9512 50.4915 52.7472 50.3111 53.1265 49.7083Z" fill="#2F73F2"/>
</svg>
