<svg width="74" height="74" viewBox="0 0 74 74" fill="none" xmlns="http://www.w3.org/2000/svg">
<g clip-path="url(#clip0_1_234)">
<path d="M32.6756 39.725C35.7491 37.6064 37.5839 34.1159 37.5839 30.388C37.5839 27.2623 36.3391 24.3513 34.0785 22.1918C31.8191 20.033 28.8515 18.9229 25.7198 19.066C19.8557 19.3338 15.1134 24.1421 14.9233 30.0126C14.8285 32.9418 15.8484 35.7559 17.7954 37.9364C18.3756 38.5861 18.5244 39.5036 18.1838 40.3304C16.3232 44.8482 17.1112 49.9825 20.2402 53.7296C24.8712 59.277 33.1549 60.0243 38.7059 55.3946C38.7312 55.3735 38.7556 55.3511 38.7789 55.3279C38.8166 55.29 38.8597 55.2822 38.8892 55.2822C38.9187 55.2822 38.9617 55.2901 38.9996 55.3277L42.7821 59.1076C43.5207 59.8455 44.5022 60.2519 45.5463 60.2519H45.5476C46.5923 60.2515 47.5741 59.8445 48.3122 59.1055V59.1056C49.8355 57.5809 49.8351 55.1008 48.3112 53.5767L41.4146 46.6803L41.5055 46.5894C42.0267 46.3072 42.5532 46.1134 43.1624 45.8904C44.7855 45.2951 47.0079 44.4795 49.593 41.7551C52.1794 39.0292 52.8769 36.7651 53.3874 35.1081C53.8141 33.7251 54.096 32.8112 55.5172 31.313C56.9385 29.8159 57.8361 29.4865 59.1989 28.9865C60.2636 28.5969 61.5888 28.1122 63.0876 27.069C63.2207 26.9762 63.3499 26.9967 63.415 27.0172C63.4897 27.0408 63.5888 27.0967 63.638 27.23C64.7611 30.2816 65.3442 33.4902 65.3705 36.7667C65.426 43.6285 63.0214 50.2612 58.5998 55.4433C58.2111 55.8988 58.2653 56.583 58.7207 56.9715C58.9248 57.1456 59.175 57.2309 59.4237 57.2309C59.7302 57.2309 60.0345 57.1018 60.2489 56.8505C65.0093 51.2713 67.5981 44.1326 67.5385 36.7492C67.51 33.2224 66.8821 29.7677 65.6724 26.481C65.401 25.7435 64.8155 25.1853 64.0662 24.9493C63.3102 24.7111 62.5023 24.8352 61.8493 25.2896C60.5807 26.1724 59.4508 26.5858 58.4477 26.9528C56.9819 27.4907 55.7157 27.9554 53.9447 29.8207C52.1742 31.6873 51.7763 32.9762 51.3144 34.4736C50.8188 36.0822 50.2573 37.9055 48.0205 40.2629C46.45 41.9181 45.0997 42.7343 43.8858 43.2751C43.9301 43.0408 43.9534 42.8009 43.9534 42.5572C43.9534 41.7609 43.7107 41.0021 43.262 40.3632C44.0916 39.9266 44.9332 39.3174 45.9234 38.2736C47.6971 36.405 48.0935 35.1147 48.5531 33.6185C49.0489 32.0109 49.6105 30.189 51.8479 27.8309C54.0874 25.4709 55.8781 24.816 57.4587 24.238C58.7505 23.7644 59.916 23.1 61.0221 22.2066C62.084 21.3491 62.2758 19.8227 61.4587 18.7315C56.1027 11.5777 47.947 7.13059 39.0824 6.53064C38.4859 6.48873 37.9681 6.94155 37.9278 7.53889C37.8873 8.13624 38.3387 8.65323 38.936 8.69355C47.1698 9.25087 54.7464 13.3832 59.7234 20.0309C59.836 20.1813 59.8076 20.4009 59.6601 20.52C58.7417 21.2616 57.7775 21.8121 56.7131 22.2022C55.0891 22.796 52.8648 23.6095 50.2751 26.3388C47.6882 29.0649 46.9906 31.3277 46.4798 32.9843C46.0549 34.3676 45.7741 35.2817 44.3506 36.7812C43.1598 38.0367 42.3303 38.4751 41.238 38.8952C39.9302 38.5004 38.4505 38.8181 37.4173 39.8496L34.8829 42.3855L34.8688 42.3997C34.5657 42.7004 34.159 42.8544 33.727 42.8367C33.2845 42.8175 32.8669 42.6127 32.5808 42.2748L32.3757 42.0326C32.0839 41.6879 31.956 41.2515 32.0156 40.8038C32.0745 40.3611 32.309 39.9778 32.6756 39.725ZM30.7213 43.4341C31.4611 44.3361 32.4411 44.9514 33.6329 45.0031C34.6621 45.0473 35.669 44.66 36.3992 43.9356L38.95 41.3833C39.598 40.7363 40.6516 40.7358 41.2985 41.3826C42.9543 43.0384 39.8422 45.1884 38.7668 46.2623C36.5846 48.4446 33.6836 49.6462 30.5977 49.6462C29.9991 49.6462 29.5137 50.1315 29.5137 50.7302C29.5137 51.329 29.9991 51.8142 30.5977 51.8142C34.0647 51.8142 37.335 50.5362 39.8721 48.2043L46.778 55.1102C47.457 55.7891 47.4571 56.8943 46.7784 57.5736C46.4496 57.9027 46.0121 58.0841 45.5467 58.0842C45.5464 58.0842 45.5463 58.0842 45.5461 58.0842C45.0809 58.0842 44.6435 57.9031 44.3145 57.5744L40.5318 53.7945C40.0928 53.356 39.5097 53.1145 38.8892 53.1145C38.8888 53.1145 38.8882 53.1145 38.8876 53.1145C38.2861 53.1148 37.7195 53.3423 37.2857 53.7561C32.6525 57.5912 25.761 56.9605 21.9042 52.3402C19.2926 49.2129 18.6352 44.9274 20.1883 41.1561C20.8479 39.5543 20.5506 37.7673 19.4124 36.4925C17.8381 34.7293 17.0132 32.4529 17.0901 30.0827C17.2437 25.3359 21.0777 21.4481 25.8186 21.2316C28.3518 21.1175 30.7538 22.0137 32.5808 23.7592C34.4091 25.5059 35.4161 27.86 35.4161 30.3878C35.4161 33.4028 33.9318 36.2262 31.4452 37.94C30.5808 38.5358 30.0054 39.4754 29.8665 40.518C29.7272 41.565 30.0387 42.6279 30.7213 43.4341Z" fill="#2F73F2"/>
<path d="M37 0C31.7495 0 26.6725 1.08268 21.9102 3.21828C17.3114 5.28045 13.2388 8.21357 9.80529 11.936C9.39945 12.3761 9.42705 13.0619 9.86715 13.4677C10.3072 13.8737 10.9929 13.8458 11.3989 13.4059C14.6325 9.89996 18.4675 7.13796 22.7972 5.19648C27.2787 3.18691 32.0573 2.16797 37 2.16797C56.2065 2.16797 71.832 17.7935 71.832 37C71.832 56.2065 56.2065 71.832 37 71.832C17.7935 71.832 2.16797 56.2065 2.16797 37C2.16797 29.7862 4.3634 22.8605 8.51723 16.9716C8.86222 16.4823 8.74544 15.8061 8.2562 15.4609C7.76711 15.1159 7.0907 15.233 6.74556 15.722C2.33259 21.9784 0 29.3364 0 37C0 57.4019 16.5981 74 37 74C57.4019 74 74 57.4019 74 37C74 16.5981 57.4019 0 37 0Z" fill="#2F73F2"/>
<path d="M34.1783 6.59627C26.9651 7.29898 20.1335 10.7017 14.9419 16.1775C9.71858 21.6871 6.71233 28.7239 6.47674 35.9918C6.33741 40.2942 7.07915 44.4804 8.68142 48.4347C10.2247 52.2431 12.4879 55.6558 15.4086 58.5782C18.3292 61.5007 21.7407 63.7662 25.5481 65.3117C29.1944 66.7918 33.038 67.5399 36.9887 67.5399C37.3213 67.5399 37.6552 67.5346 37.989 67.524C44.9832 67.3016 51.4802 64.8078 56.7778 60.3125C57.2342 59.9251 57.2903 59.2411 56.903 58.7846C56.5156 58.3282 55.8316 58.272 55.3751 58.6595C50.455 62.8344 44.4191 65.1504 37.9201 65.3572C33.9224 65.4838 30.0342 64.7932 26.3634 63.303C22.8263 61.8671 19.6564 59.7618 16.942 57.0458C14.2278 54.3293 12.1246 51.1584 10.691 47.6205C9.20303 43.9485 8.5142 40.0596 8.6437 36.0619C8.86194 29.325 11.6575 22.7929 16.5153 17.669C21.3476 12.5719 27.6951 9.40582 34.3885 8.75384C34.9844 8.69588 35.4203 8.16574 35.3623 7.56984C35.3044 6.97422 34.7752 6.54121 34.1783 6.59627Z" fill="#2F73F2"/>
</g>
<defs>
<clipPath id="clip0_1_234">
<rect width="74" height="74" fill="white"/>
</clipPath>
</defs>
</svg>
