<svg width="49" height="74" viewBox="0 0 49 74" fill="none" xmlns="http://www.w3.org/2000/svg">
<path d="M43.5479 56.4308C43.084 56.0449 42.3909 56.1034 41.9999 56.5614C40.1394 58.7402 37.418 59.99 34.522 59.99C33.3027 59.99 32.3107 60.9688 32.3107 62.1718V71.832H24.0986C23.4919 71.832 23 72.3174 23 72.916C23 73.5147 23.4919 74 24.0986 74H32.6769C33.6866 74 34.508 73.1896 34.508 72.1934V62.1717C34.508 62.1665 34.5167 62.1578 34.5334 62.1578C38.0675 62.1578 41.4014 60.6271 43.6804 57.9582C44.0712 57.5003 44.012 56.8164 43.5479 56.4308Z" fill="#2F73F2"/>
<path d="M44.5922 44.0082C47.4014 41.6759 48.8795 38.9325 48.8795 36.0231C48.8795 33.4 47.6554 30.8803 45.3302 28.6916C46.0468 27.2119 46.4457 25.5926 46.4855 23.9219C46.562 20.7154 45.3548 17.6876 43.0865 15.3963C40.8176 13.1045 37.78 11.8423 34.522 11.8423C34.5167 11.8423 34.508 11.8336 34.508 11.8284V1.80664C34.508 0.810387 33.6866 0 32.6769 0H16.3231C15.3134 0 14.492 0.810387 14.492 1.80664V11.8283C14.492 11.8335 14.4833 11.8422 14.4666 11.8422C11.4494 11.8422 8.56836 12.9542 6.35395 14.9734C5.90835 15.3797 5.88096 16.0655 6.29287 16.5052C6.70464 16.9448 7.39971 16.972 7.84531 16.5654C9.65249 14.9176 12.004 14.0101 14.478 14.0101C15.6973 14.0101 16.6893 13.0314 16.6893 11.8283V2.16797H32.3107V11.8283C32.3107 13.0314 33.3027 14.0101 34.5334 14.0101C37.1835 14.0101 39.6629 15.0404 41.5147 16.911C43.366 18.7811 44.3513 21.2529 44.2889 23.8708C44.2304 26.3262 43.2219 28.6491 41.449 30.4114C39.6761 32.1738 37.3298 33.186 34.8421 33.2616C31.7397 33.3562 28.8509 32.0401 26.913 29.6522C26.3209 28.9227 25.4415 28.5043 24.5 28.5043C23.5585 28.5043 22.6791 28.9227 22.087 29.6522C20.149 32.0401 17.2613 33.3575 14.1579 33.2616C11.6702 33.1861 9.32378 32.174 7.55088 30.4114C5.77813 28.649 4.76958 26.3261 4.71113 23.8708C4.67993 22.56 4.9102 21.2848 5.39565 20.0809C5.61992 19.5246 5.34468 18.8943 4.78101 18.673C4.21675 18.4516 3.57837 18.7234 3.3541 19.2795C2.75879 20.7558 2.47637 22.3178 2.5146 23.9217C2.55444 25.5923 2.95332 27.2118 3.66992 28.6913C1.34478 30.88 0.120605 33.3997 0.120605 36.0228C0.120605 38.9322 1.59878 41.6757 4.40791 44.0079C3.22812 45.8138 2.56646 47.902 2.5146 50.0779C2.43828 53.2845 3.64531 56.3123 5.91362 58.6035C8.18252 60.8954 11.22 62.1575 14.4781 62.1575C14.4834 62.1575 14.4922 62.1662 14.4922 62.1714V72.1934C14.4922 73.1896 15.3135 74 16.3232 74H19.3105C19.9172 74 20.4091 73.5147 20.4091 72.916C20.4091 72.3174 19.9172 71.832 19.3105 71.832H16.6895V62.1717C16.6895 60.9686 15.6975 59.9899 14.4667 59.9899C11.8166 59.9899 9.33726 58.9596 7.4854 57.089C5.63413 55.2189 4.64888 52.7471 4.71128 50.1292C4.76973 47.6738 5.77827 45.3509 7.55102 43.5886C9.32393 41.8262 11.6703 40.814 14.1581 40.7384C17.2602 40.6428 20.1491 41.9599 22.0871 44.3478C22.6792 45.0773 23.5587 45.4957 24.5001 45.4957C25.4416 45.4957 26.3211 45.0773 26.9132 44.3478C28.851 41.9599 31.7419 40.6454 34.8422 40.7384C37.33 40.8139 39.6764 41.826 41.4491 43.5886C43.2219 45.351 44.2304 47.6739 44.2889 50.1292C44.3104 51.0318 44.2061 51.9269 43.979 52.7896C43.8266 53.369 44.179 53.9607 44.7663 54.1112C45.3531 54.2617 45.9532 53.9139 46.1057 53.3345C46.3839 52.2772 46.5116 51.1817 46.4854 50.0783C46.4337 47.9023 45.772 45.8141 44.5922 44.0082ZM34.9096 38.5713C31.1123 38.4554 27.5716 40.0677 25.1978 42.9926C24.9613 43.2842 24.6591 43.3276 24.5 43.3276C24.3409 43.3276 24.0387 43.2841 23.8021 42.9926C21.4284 40.0675 17.8875 38.4573 14.0904 38.5713C11.0384 38.664 8.16201 39.9033 5.99141 42.0612C5.91318 42.139 5.83877 42.2196 5.76304 42.2991C4.04404 40.8532 2.31772 38.728 2.31772 36.023C2.31772 34.1406 3.18535 32.2868 4.8352 30.6064C5.18457 31.0736 5.56968 31.5194 5.99126 31.9385C8.16187 34.0964 11.0381 35.3357 14.0902 35.4284C14.2177 35.4323 14.3444 35.4341 14.4712 35.4341C18.1243 35.434 21.5079 33.8339 23.802 31.0072C24.0386 30.7155 24.3408 30.6721 24.4998 30.6721C24.6589 30.6721 24.9611 30.7156 25.1977 31.0072C27.5716 33.9323 31.1133 35.5427 34.9095 35.4284C37.9615 35.3357 40.8378 34.0964 43.0084 31.9385C43.43 31.5194 43.8151 31.0736 44.1645 30.6062C45.8144 32.2867 46.682 34.1403 46.682 36.0228C46.682 38.7279 44.9557 40.8531 43.2367 42.299C43.1609 42.2195 43.0865 42.1388 43.0084 42.0611C40.838 39.9033 37.9618 38.664 34.9096 38.5713Z" fill="#2F73F2"/>
<path d="M11.2432 46.8809C11.2432 46.2822 10.7513 45.7969 10.1445 45.7969C9.53779 45.7969 9.0459 46.2822 9.0459 46.8809C9.0459 47.4795 9.53779 47.9648 10.1445 47.9648C10.7513 47.9648 11.2432 47.4795 11.2432 46.8809Z" fill="#2F73F2"/>
<path d="M10.1445 49.8507C9.53779 49.8507 9.0459 50.336 9.0459 50.9347C9.0459 51.5333 9.53779 52.0187 10.1445 52.0187C10.7513 52.0187 11.2432 51.5333 11.2432 50.9347C11.2432 50.336 10.7513 49.8507 10.1445 49.8507Z" fill="#2F73F2"/>
<path d="M13.0742 47.9648C13.0742 48.5635 13.5661 49.0488 14.1729 49.0488C14.7796 49.0488 15.2715 48.5635 15.2715 47.9648C15.2715 47.3662 14.7796 46.8809 14.1729 46.8809C13.5661 46.8809 13.0742 47.3662 13.0742 47.9648Z" fill="#2F73F2"/>
<path d="M9.0459 27.734C9.0459 28.3327 9.53779 28.818 10.1445 28.818C10.7513 28.818 11.2432 28.3327 11.2432 27.734C11.2432 27.1354 10.7513 26.65 10.1445 26.65C9.53779 26.65 9.0459 27.1354 9.0459 27.734Z" fill="#2F73F2"/>
<path d="M10.1445 24.7642C10.7513 24.7642 11.2432 24.2788 11.2432 23.6802C11.2432 23.0815 10.7513 22.5962 10.1445 22.5962C9.53779 22.5962 9.0459 23.0815 9.0459 23.6802C9.0459 24.279 9.53779 24.7642 10.1445 24.7642Z" fill="#2F73F2"/>
<path d="M15.2715 26.65C15.2715 26.0514 14.7796 25.566 14.1729 25.566C13.5661 25.566 13.0742 26.0514 13.0742 26.65C13.0742 27.2487 13.5661 27.734 14.1729 27.734C14.7796 27.734 15.2715 27.2487 15.2715 26.65Z" fill="#2F73F2"/>
</svg>
