<svg width="47" height="47" viewBox="0 0 47 47" fill="none" xmlns="http://www.w3.org/2000/svg">
<g clip-path="url(#clip0_1_123)">
<path d="M23.5 7.66299C24.062 7.66299 24.5217 7.20321 24.5217 6.64125V6.13038C24.5217 5.56842 24.062 5.10864 23.5 5.10864C22.9381 5.10864 22.4783 5.56842 22.4783 6.13038V6.64125C22.4783 7.20321 22.9381 7.66299 23.5 7.66299Z" fill="white"/>
<path d="M23.5 39.3369C22.9381 39.3369 22.4783 39.7967 22.4783 40.3587V40.8695C22.4783 41.4315 22.9381 41.8913 23.5 41.8913C24.062 41.8913 24.5217 41.4315 24.5217 40.8695V40.3587C24.5217 39.7967 24.062 39.3369 23.5 39.3369Z" fill="white"/>
<path d="M6.64131 22.4783H6.13044C5.56849 22.4783 5.1087 22.9381 5.1087 23.5C5.1087 24.062 5.56849 24.5217 6.13044 24.5217H6.64131C7.20327 24.5217 7.66305 24.062 7.66305 23.5C7.66305 22.9381 7.20327 22.4783 6.64131 22.4783Z" fill="white"/>
<path d="M40.8696 22.4783H40.3587C39.7968 22.4783 39.337 22.9381 39.337 23.5C39.337 24.062 39.7968 24.5217 40.3587 24.5217H40.8696C41.4315 24.5217 41.8913 24.062 41.8913 23.5C41.8913 22.9381 41.4315 22.4783 40.8696 22.4783Z" fill="white"/>
<path d="M11.9543 10.5238C11.5456 10.1151 10.9326 10.1151 10.5239 10.5238C10.1152 10.9325 10.1152 11.5455 10.5239 11.9542L10.8815 12.3119C11.0859 12.5162 11.3413 12.6184 11.5967 12.6184C11.8522 12.6184 12.1076 12.5162 12.3119 12.3119C12.7206 11.9032 12.7206 11.2901 12.3119 10.8814L11.9543 10.5238Z" fill="white"/>
<path d="M10.8815 34.6881L10.5239 35.0457C10.1152 35.4544 10.1152 36.0675 10.5239 36.4762C10.7282 36.6805 10.9837 36.7827 11.2391 36.7827C11.4946 36.7827 11.75 36.6805 11.9543 36.4762L12.3119 36.1186C12.7206 35.7099 12.7206 35.0968 12.3119 34.6881C11.9032 34.2794 11.2902 34.2794 10.8815 34.6881Z" fill="white"/>
<path d="M35.0457 10.5238L34.6881 10.8814C34.2794 11.2901 34.2794 11.9032 34.6881 12.3119C34.8924 12.5162 35.1478 12.6184 35.4033 12.6184C35.6587 12.6184 35.9141 12.5162 36.1185 12.3119L36.4761 11.9542C36.8848 11.5455 36.8848 10.9325 36.4761 10.5238C36.0674 10.1151 35.4544 10.1151 35.0457 10.5238Z" fill="white"/>
<path d="M24.5217 23.0913V13.7935C24.5217 13.2315 24.062 12.7717 23.5 12.7717C22.9381 12.7717 22.4783 13.2315 22.4783 13.7935V23.5C22.4783 23.7554 22.5804 24.0109 22.7848 24.2152L33.9728 35.4032C34.1772 35.6076 34.4326 35.7098 34.688 35.7098C34.9435 35.7098 35.1989 35.6076 35.4033 35.4032C35.812 34.9946 35.812 34.3815 35.4033 33.9728L24.5217 23.0913Z" fill="white"/>
<path d="M23.5 0C10.5239 0 0 10.5239 0 23.5C0 36.4761 10.5239 47 23.5 47C36.4761 47 47 36.4761 47 23.5C47 10.5239 36.4761 0 23.5 0ZM23.5 44.9565C11.6478 44.9565 2.04348 35.3522 2.04348 23.5C2.04348 11.6478 11.6478 2.04348 23.5 2.04348C35.3522 2.04348 44.9565 11.6478 44.9565 23.5C44.9565 35.3522 35.3522 44.9565 23.5 44.9565Z" fill="white"/>
</g>
<defs>
<clipPath id="clip0_1_123">
<rect width="47" height="47" fill="white"/>
</clipPath>
</defs>
</svg>
