<svg width="49" height="49" viewBox="0 0 49 49" fill="none" xmlns="http://www.w3.org/2000/svg">
<path d="M46.917 1.22656H12.6903C11.5404 1.2279 10.6086 2.15971 10.6073 3.30958V12.7501L9.04214 10.4024C8.32572 9.32179 6.88493 8.99756 5.7747 9.66726L2.55464 11.6032C1.50012 12.222 0.726551 13.2254 0.396485 14.4027C-0.778177 18.6798 0.0934154 26.0488 10.9096 36.8666C19.5111 45.4592 25.9243 47.7734 30.3444 47.7734C31.3677 47.7781 32.3871 47.6451 33.375 47.378C34.5518 47.048 35.5552 46.2755 36.1752 45.2224L38.1087 41.999C38.7757 40.8896 38.4518 39.4518 37.3735 38.7355L29.6631 33.5958C28.6054 32.8962 27.1877 33.1262 26.4054 34.1243L24.1606 37.0103C23.926 37.3191 23.5004 37.4091 23.1608 37.2218L22.7335 36.9865C21.3277 36.2203 19.578 35.2662 16.0443 31.7325C15.6619 31.3501 15.3156 30.9924 14.9905 30.6501H46.917C48.064 30.6509 48.9955 29.7238 49 28.5768V3.30958C48.9986 2.15971 48.0668 1.2279 46.917 1.22656ZM21.9518 38.4211L22.3668 38.649C23.4099 39.2323 24.723 38.9616 25.4505 38.0135L27.6952 35.1275C27.9505 34.8024 28.4122 34.7275 28.7571 34.9551L36.4675 40.0949C36.8178 40.3283 36.9231 40.7957 36.7069 41.1568L34.7734 44.3802C34.3696 45.0726 33.7136 45.5818 32.9428 45.8015C29.0815 46.8634 22.3235 45.9649 12.0669 35.7075C1.81027 25.4501 0.915132 18.6929 1.97454 14.8348C2.19404 14.0641 2.70302 13.4082 3.39503 13.0042L6.61843 11.0699C6.97961 10.8541 7.44666 10.9593 7.68033 11.3092L12.8225 19.0196C13.0505 19.3644 12.9755 19.8265 12.6501 20.0815L9.76324 22.327C8.81526 23.0543 8.54455 24.3671 9.12772 25.4099L9.35641 25.8249C10.1732 27.323 11.1886 29.1871 14.8899 32.8875C18.5913 36.588 20.4546 37.6041 21.9518 38.4211ZM47.3663 28.5769C47.3636 28.8227 47.1627 29.0199 46.9171 29.018H13.5169C12.4559 27.8048 11.5411 26.4713 10.791 25.0448L10.5557 24.6159C10.368 24.2771 10.4578 23.8519 10.7665 23.6177L13.6533 21.3722C14.6517 20.5901 14.8817 19.1722 14.1818 18.1145L12.2409 15.2015V3.30958C12.2396 3.19001 12.2865 3.07495 12.371 2.99042C12.4556 2.9059 12.5706 2.85899 12.6902 2.86033H46.917C47.0365 2.85899 47.1516 2.9059 47.2361 2.99042C47.3206 3.07495 47.3676 3.19001 47.3662 3.30958V28.5769H47.3663Z" fill="white"/>
<path d="M44.1037 5.00864L30.4513 15.3624C30.0651 15.6431 29.542 15.6431 29.1557 15.3624L15.5085 5.00864C15.1489 4.73592 14.6363 4.80637 14.3637 5.16592C14.091 5.52547 14.1614 6.03809 14.521 6.31072L28.17 16.6637C29.141 17.381 30.4663 17.381 31.4374 16.6637L45.0905 6.31072C45.2633 6.17976 45.3769 5.98544 45.4063 5.77063C45.4357 5.55582 45.3785 5.33814 45.2473 5.16554C44.9747 4.80666 44.4629 4.73649 44.1037 5.00864Z" fill="white"/>
<path d="M22.8324 16.7324L14.4645 25.6935C14.1568 26.0235 14.1749 26.5405 14.5049 26.8482C14.8348 27.1558 15.3519 27.1377 15.6595 26.8078L24.0276 17.8427C24.304 17.5091 24.272 17.0178 23.9546 16.7228C23.6372 16.4279 23.1448 16.4321 22.8324 16.7324Z" fill="white"/>
<path d="M36.8287 16.7323C36.5211 16.4023 36.0041 16.3841 35.6741 16.6919C35.3441 16.9995 35.3259 17.5165 35.6337 17.8465L43.9992 26.8076C44.3069 27.1376 44.8238 27.1558 45.1539 26.848C45.4839 26.5403 45.502 26.0234 45.1943 25.6933L36.8287 16.7323Z" fill="white"/>
</svg>
