<svg width="35" height="47" viewBox="0 0 35 47" fill="none" xmlns="http://www.w3.org/2000/svg">
<path d="M17.5 0C7.92636 0 0.13797 7.7884 0.13797 17.362C0.13797 20.5137 1.55144 23.9034 1.61068 24.0464C2.0672 25.13 2.96798 26.8131 3.61752 27.7997L15.5217 45.8367C16.0089 46.5762 16.7299 47 17.5 47C18.27 47 18.9911 46.5762 19.4782 45.8378L31.3835 27.7997C32.034 26.8131 32.9338 25.13 33.3903 24.0464C33.4495 23.9044 34.862 20.5148 34.862 17.362C34.862 7.7884 27.0736 0 17.5 0ZM31.507 23.2539C31.0995 24.2251 30.2611 25.7908 29.6779 26.6752L17.7727 44.7133C17.5378 45.0697 17.4632 45.0697 17.2283 44.7133L5.32308 26.6752C4.73992 25.7908 3.90144 24.2241 3.49394 23.2528C3.47658 23.211 2.18056 20.0909 2.18056 17.362C2.18056 8.91488 9.05285 2.04259 17.5 2.04259C25.9471 2.04259 32.8194 8.91488 32.8194 17.362C32.8194 20.095 31.5203 23.2232 31.507 23.2539Z" fill="white"/>
<path d="M17.5 8.17139C12.4313 8.17139 8.30832 12.2954 8.30832 17.363C8.30832 22.4307 12.4313 26.5547 17.5 26.5547C22.5687 26.5547 26.6916 22.4307 26.6916 17.363C26.6916 12.2954 22.5687 8.17139 17.5 8.17139ZM17.5 24.5121C13.5588 24.5121 10.3509 21.3052 10.3509 17.363C10.3509 13.4208 13.5588 10.214 17.5 10.214C21.4412 10.214 24.649 13.4208 24.649 17.363C24.649 21.3052 21.4412 24.5121 17.5 24.5121Z" fill="white"/>
</svg>
