<svg width="41" height="41" viewBox="0 0 41 41" fill="none" xmlns="http://www.w3.org/2000/svg">
<g clip-path="url(#clip0_1_85)">
<path d="M39.9242 31.6293L31.6256 26.0951C30.5725 25.3984 29.1609 25.6277 28.3823 26.6219L25.965 29.7299C25.6544 30.1395 25.0896 30.2583 24.6402 30.0087L24.1804 29.7552C22.6561 28.9243 20.7595 27.8899 16.9382 24.0673C13.1169 20.2446 12.0804 18.3465 11.2496 16.825L10.9974 16.3652C10.7443 15.9159 10.8609 15.3488 11.2707 15.0356L14.3766 12.6191C15.3704 11.8404 15.6 10.4292 14.9041 9.37575L9.36992 1.07721C8.65677 0.00448159 7.22599 -0.317545 6.12195 0.346124L2.6518 2.43065C1.56146 3.07166 0.761515 4.1098 0.419712 5.32752C-0.829882 9.88057 0.110175 17.7384 11.6855 29.3151C20.8935 38.5223 27.7483 40.9984 32.4599 40.9984C33.5442 41.003 34.6243 40.862 35.6711 40.5789C36.8891 40.2375 37.9274 39.4375 38.568 38.3468L40.6546 34.8788C41.3192 33.7745 40.9974 32.3428 39.9242 31.6293ZM39.4773 34.1777L37.3955 37.6479C36.9355 38.4351 36.1888 39.0139 35.3116 39.263C31.1084 40.417 23.765 39.4612 12.6522 28.3484C1.53944 17.2356 0.583688 9.8929 1.73768 5.68902C1.98717 4.81086 2.56669 4.06312 3.35486 3.60242L6.82501 1.52062C7.30405 1.23238 7.92504 1.37209 8.2345 1.8376L11.2407 6.35101L13.764 10.1354C14.0661 10.5924 13.9668 11.2048 13.5358 11.5429L10.4291 13.9595C9.48369 14.6824 9.21371 15.9904 9.79579 17.0286L10.0425 17.4768C10.9157 19.0783 12.0013 21.0705 15.9647 25.0333C19.9282 28.9961 21.9198 30.0818 23.5206 30.9549L23.9694 31.2022C25.0075 31.7842 26.3156 31.5143 27.0385 30.5689L29.4551 27.4622C29.7933 27.0314 30.4055 26.9322 30.8626 27.234L39.1604 32.7682C39.6262 33.0774 39.766 33.6988 39.4773 34.1777Z" fill="#2F73F2"/>
<path d="M23.2321 6.83684C29.6439 6.84397 34.8399 12.04 34.8471 18.4518C34.8471 18.8292 35.1529 19.135 35.5303 19.135C35.9077 19.135 36.2135 18.8292 36.2135 18.4518C36.2056 11.2856 30.3983 5.47827 23.2321 5.47043C22.8548 5.47043 22.5489 5.77628 22.5489 6.15363C22.5489 6.53099 22.8548 6.83684 23.2321 6.83684Z" fill="#46C4FF"/>
<path d="M23.2321 10.9362C27.3808 10.9411 30.7428 14.3031 30.7477 18.4518C30.7477 18.8292 31.0536 19.135 31.4309 19.135C31.8083 19.135 32.1141 18.8292 32.1141 18.4518C32.1084 13.5487 28.1351 9.57543 23.2321 9.56982C22.8548 9.56982 22.5489 9.87568 22.5489 10.253C22.5489 10.6304 22.8548 10.9362 23.2321 10.9362Z" fill="#46C4FF"/>
<path d="M23.2321 15.0356C25.1178 15.0379 26.646 16.566 26.6483 18.4518C26.6483 18.8292 26.9542 19.135 27.3315 19.135C27.7088 19.135 28.0147 18.8292 28.0147 18.4518C28.0117 15.8117 25.8722 13.6722 23.2321 13.6692C22.8548 13.6692 22.5489 13.9751 22.5489 14.3524C22.5489 14.7298 22.8548 15.0356 23.2321 15.0356Z" fill="#46C4FF"/>
</g>
<defs>
<clipPath id="clip0_1_85">
<rect width="41" height="41" fill="white"/>
</clipPath>
</defs>
</svg>
